<svg xmlns="http://www.w3.org/2000/svg" viewBox="0 0 24 24" fill="none">
  <path d="M8.5 5.5C8.5 3.84315 9.84315 2.5 11.5 2.5H12.5C14.1569 2.5 15.5 3.84315 15.5 5.5V6.5C15.5 8.15685 14.1569 9.5 12.5 9.5H11.5C9.84315 9.5 8.5 8.15685 8.5 6.5V5.5Z" stroke="#000000" stroke-width="1.75" stroke-linejoin="round"/>
  <path d="M12 9.5V13.5" stroke="#000000" stroke-width="1.75" stroke-linecap="round"/>
  <path d="M8.5 13.5H15.5C16.6046 13.5 17.5 14.3954 17.5 15.5V17.5C17.5 18.6046 16.6046 19.5 15.5 19.5H8.5C7.39543 19.5 6.5 18.6046 6.5 17.5V15.5C6.5 14.3954 7.39543 13.5 8.5 13.5Z" stroke="#000000" stroke-width="1.75" stroke-linejoin="round"/>
</svg>
